<svg id="Capa_1" data-name="Capa 1" xmlns="http://www.w3.org/2000/svg" xmlns:xlink="http://www.w3.org/1999/xlink" viewBox="0 0 44.15 46.03"><defs><style>.cls-1{fill:url(#Degradado_sin_nombre_11);}.cls-2,.cls-3{fill:#fff;}.cls-2{stroke:#221e1f;stroke-linecap:round;stroke-linejoin:round;}.cls-4{fill:url(#Degradado_sin_nombre_11-2);}</style><radialGradient id="Degradado_sin_nombre_11" cx="15.14" cy="24.05" r="18.64" gradientUnits="userSpaceOnUse"><stop offset="1" stop-color="#4c4a4c"/><stop offset="1" stop-color="#fff"/></radialGradient><radialGradient id="Degradado_sin_nombre_11-2" cx="17.54" cy="23.03" r="3.14" xlink:href="#Degradado_sin_nombre_11"/></defs><title>CERRAR SESIÓN</title><path class="cls-1" d="M28,34.22v10a2.87,2.87,0,0,1-2.87,2.87H5.17A2.87,2.87,0,0,1,2.3,44.2V4.4A3,3,0,0,1,5.64,1.06H25.12A2.87,2.87,0,0,1,28,3.93V13" transform="translate(-2.29 -1.04)"/><path class="cls-2" d="M23.52,47" transform="translate(-2.29 -1.04)"/><path class="cls-2" d="M23.52,34.33" transform="translate(-2.29 -1.04)"/><polygon class="cls-3" points="36.19 29.79 44.15 23.01 36.19 16.22 36.19 19.47 21.41 19.47 21.41 26.54 36.19 26.54 36.19 29.79"/><path class="cls-3" d="M19.12,47.07h-14a2.88,2.88,0,0,1-2.79-3V4A2.83,2.83,0,0,1,5.73,1.12L20,4.75a2.94,2.94,0,0,1,2.14,2.91l-.22,36.46A2.88,2.88,0,0,1,19.12,47.07Z" transform="translate(-2.29 -1.04)"/><rect class="cls-4" x="16.48" y="18.72" width="2.12" height="8.61" rx="0.71" ry="0.71"/></svg>