<svg id="Capa_1" data-name="Capa 1" xmlns="http://www.w3.org/2000/svg" viewBox="0 0 40.04 38.61"><defs><style>.cls-1,.cls-4{fill:#fdfefe;}.cls-2,.cls-5{fill:none;}.cls-2{stroke:#221e1f;stroke-linecap:round;stroke-linejoin:round;stroke-width:2px;}.cls-3{fill:#221e1f;}.cls-4{stroke:#fafafa;}.cls-4,.cls-5,.cls-6{stroke-miterlimit:10;stroke-width:0.5px;}.cls-5,.cls-6{stroke:#fff;}.cls-6{fill:#fff;}</style></defs><title>LISTA DE PEDIDOS PENDIENTES</title><path class="cls-1" d="M14.29,23.38v18a1,1,0,0,0,1,.94h27a1,1,0,0,0,1-.94V13.81L33,3.75H15.25a1,1,0,0,0-1,.94V11.4" transform="translate(-3.29 -3.75)"/><line class="cls-2" x1="25" y1="32.09" x2="15.11" y2="32.09"/><line class="cls-2" x1="35.86" y1="32.09" x2="30.55" y2="32.09"/><line class="cls-2" x1="18.89" y1="27.83" x2="15.11" y2="27.83"/><line class="cls-2" x1="35.86" y1="27.83" x2="28.3" y2="27.83"/><line class="cls-2" x1="15.26" y1="23.57" x2="14.96" y2="23.57"/><line class="cls-2" x1="35.86" y1="23.57" x2="26.21" y2="23.57"/><line class="cls-2" x1="35.86" y1="19.3" x2="21.95" y2="19.3"/><line class="cls-2" x1="35.86" y1="15.04" x2="18.33" y2="15.04"/><line class="cls-2" x1="27.26" y1="10.78" x2="15.11" y2="10.78"/><line class="cls-2" x1="26.77" y1="6.52" x2="15.11" y2="6.52"/><polygon class="cls-3" points="25.18 24.8 28.84 32.41 21.44 28.34 0 5.66 3.74 2.12 25.18 24.8"/><line class="cls-4" x1="3.54" y1="9.4" x2="7.22" y2="5.92"/><line class="cls-5" x1="4.97" y1="10.92" x2="8.66" y2="7.44"/><polyline class="cls-5" points="21.41 28.42 22.48 25.69 25.27 24.77"/><line class="cls-6" x1="22.49" y1="25.69" x2="6.9" y2="9.21"/><line class="cls-5" x1="26.73" y1="31.35" x2="27.91" y2="30.24"/><polygon class="cls-3" points="29.67 10.04 29.67 0 40.04 10.04 29.67 10.04"/></svg>